<svg xmlns="http://www.w3.org/2000/svg" viewBox="0 0 494.938 494.938"><path d="M19.215 154.585l112.695 46.467a16.659 16.659 0 006.337 1.259c5.718 0 11.247-2.957 14.333-8.142l50.739-85.448 92.707-45.619 2.856 42.134a3.029 3.029 0 002.132 2.665 3.005 3.005 0 003.252-1.049L381.922 5.623a3.32 3.32 0 00.339-3.526A3.316 3.316 0 00379.269.22L251.672 0c-1.25-.008-2.356.764-2.815 1.935a3.038 3.038 0 00.813 3.315l31.648 27.986-97.127 47.799a16.713 16.713 0 00-6.974 6.436l-45.929 77.33-99.367-40.98c-8.533-3.527-18.238.545-21.746 9.036-3.511 8.499.554 18.225 9.04 21.728zM469.375 445.01H25.567c-13.801 0-24.966 11.173-24.966 24.965 0 13.789 11.165 24.963 24.966 24.963h443.808c13.78 0 24.961-11.174 24.961-24.963 0-13.792-11.181-24.965-24.961-24.965zM50.221 241.837c-5.557 0-10.074 4.519-10.074 10.085V401.64c0 5.566 4.518 10.086 10.074 10.086h58.886c5.571 0 10.091-4.52 10.091-10.086V251.922c0-5.566-4.52-10.085-10.091-10.085H50.221zM375.761 82.027V401.64c0 5.566 4.52 10.086 10.075 10.086h58.901c5.556 0 10.075-4.52 10.075-10.086V82.027c0-5.566-4.52-10.086-10.075-10.086h-58.901c-5.556 0-10.075 4.52-10.075 10.086zM273.969 161.045c-5.57 0-10.09 4.52-10.09 10.086V401.64c0 5.566 4.519 10.086 10.09 10.086h58.886c5.557 0 10.075-4.52 10.075-10.086V171.131c0-5.566-4.519-10.086-10.075-10.086h-58.886zM162.103 286.386c-5.571 0-10.091 4.517-10.091 10.084v105.17c0 5.566 4.52 10.086 10.091 10.086h58.87c5.572 0 10.092-4.52 10.092-10.086V296.47c0-5.567-4.52-10.084-10.092-10.084h-58.87z"/></svg>